<svg version="1.0" xmlns="http://www.w3.org/2000/svg"
 width="1257.000000pt" height="191.000000pt" viewBox="0 0 1257.000000 191.000000"
 preserveAspectRatio="xMidYMid meet">
<g transform="translate(0.000000,191.000000) scale(0.100000,-0.100000)"
fill="#000000" stroke="none">
<path d="M3370 1879 c-174 -95 -357 -285 -463 -479 -82 -149 -117 -285 -117
-453 0 -160 26 -260 107 -422 93 -185 281 -384 461 -488 l63 -37 370 0 369 0
0 693 c0 380 -3 810 -7 955 l-6 262 -361 0 -361 0 -55 -31z"/>
<path d="M9195 1893 c-324 -12 -593 -41 -1275 -138 -1303 -184 -1594 -195
-3040 -120 -157 8 -307 15 -334 15 l-49 0 6 -692 c4 -380 8 -693 10 -694 2 -2
179 7 393 21 959 61 1223 70 1559 56 464 -20 732 -46 1555 -151 777 -100 978
-115 1365 -107 261 6 419 20 660 58 630 100 1359 327 2080 646 186 83 445 210
445 219 0 9 -287 145 -470 222 -789 336 -1533 548 -2214 632 -134 17 -577 44
-611 38 -5 -1 -41 -3 -80 -5z"/>
<path d="M542 1549 c-194 -33 -369 -161 -452 -333 -41 -85 -70 -201 -70 -281
0 -83 29 -198 71 -284 121 -245 409 -384 679 -327 227 48 409 216 476 441 26
86 24 267 -3 352 -98 300 -395 483 -701 432z"/>
<path d="M1739 1343 l-217 -3 25 -62 c87 -215 82 -488 -12 -721 -7 -16 20 -17
484 -17 270 0 491 3 491 8 0 4 -9 36 -21 72 -26 85 -49 236 -49 330 0 94 23
245 49 330 12 36 21 66 21 68 0 2 -397 0 -771 -5z"/>
</g>
</svg>
