<svg version="1.0" xmlns="http://www.w3.org/2000/svg"
 width="1097.000000pt" height="480.000000pt" viewBox="0 0 1097.000000 480.000000"
 preserveAspectRatio="xMidYMid meet">
<g transform="translate(0.000000,480.000000) scale(0.100000,-0.100000)"
fill="#9B83D4" stroke="none">
<path d="M8410 4660 c207 -157 292 -231 456 -394 170 -171 244 -259 349 -417
253 -378 326 -758 215 -1124 -12 -39 -46 -119 -76 -180 -406 -826 -1795 -1459
-3554 -1619 -566 -52 -1247 -44 -1810 19 -1575 179 -2914 740 -3853 1614 -94
87 -107 97 -107 86 0 -14 262 -294 436 -465 786 -773 1722 -1338 2829 -1706
677 -225 1298 -347 2120 -416 202 -17 1068 -17 1270 0 1125 95 2014 320 2785
706 580 291 998 631 1242 1011 99 153 171 333 204 510 24 130 15 355 -19 485
-167 641 -849 1238 -1992 1745 -173 77 -556 230 -600 241 -21 5 10 -24 105
-96z"/>
</g>
</svg>
