<svg version="1.0" xmlns="http://www.w3.org/2000/svg"
 width="1136.000000pt" height="739.000000pt" viewBox="0 0 1136.000000 739.000000"
 preserveAspectRatio="xMidYMid meet">
<g transform="translate(0.000000,739.000000) scale(0.100000,-0.100000)"
fill="#9B83D4" stroke="none">
<path d="M8930 7335 c0 -4 31 -57 69 -119 195 -316 328 -594 426 -891 170
-514 186 -954 48 -1379 -311 -963 -1463 -1620 -3108 -1771 -858 -79 -1810 -4
-2710 215 -805 195 -1553 502 -2190 898 -538 335 -1036 777 -1374 1220 -34 46
-65 81 -68 78 -6 -5 167 -317 325 -586 1423 -2421 3180 -4048 5067 -4693 411
-140 845 -237 1265 -282 322 -35 800 -30 1130 11 1381 172 2553 948 3119 2064
370 728 456 1525 251 2325 -157 613 -460 1176 -938 1745 -128 152 -524 550
-682 684 -257 219 -630 504 -630 481z m1430 -2176 c99 -166 290 -583 290 -631
0 -13 -123 -172 -175 -226 -10 -11 -11 7 -7 87 10 210 -32 478 -111 711 -24
72 -43 130 -42 130 2 0 22 -32 45 -71z m445 -1251 c8 -62 16 -155 17 -206 l3
-92 -310 -146 c-424 -199 -387 -187 -320 -106 31 37 174 209 318 383 210 253
263 312 269 298 4 -10 14 -69 23 -131z m-8590 -765 c166 -115 391 -257 575
-365 l145 -85 253 -339 c138 -186 267 -359 284 -384 l33 -45 -35 25 c-430 301
-949 752 -1367 1186 -272 283 -277 290 -136 186 65 -49 177 -129 248 -179z
m8565 -94 c-18 -87 -77 -311 -83 -315 -7 -3 -1251 -203 -1253 -201 -2 2 301
145 674 319 372 174 678 313 680 309 2 -5 -7 -55 -18 -112z m-291 -776 c-117
-195 -244 -365 -379 -506 l-95 -99 -1005 117 c-553 64 -1006 118 -1007 119 -1
1 282 48 630 105 348 56 900 147 1227 201 327 54 608 98 623 99 l29 1 -23 -37z
m-5457 -998 c257 -192 466 -350 464 -352 -5 -5 -262 85 -432 152 -185 74 -364
154 -546 246 l-127 64 -268 360 c-148 198 -286 384 -307 414 -43 58 -126 118
1216 -884z m363 422 c270 -107 948 -376 1508 -598 713 -282 1013 -406 1000
-411 -41 -16 -334 -40 -568 -45 -265 -6 -512 6 -745 35 l-135 17 -815 609
c-448 334 -819 612 -825 618 -5 5 13 1 40 -10 28 -11 271 -108 540 -215z
m1616 -67 c283 -32 962 -111 1509 -175 547 -63 1014 -118 1038 -121 l43 -6
-52 -35 c-232 -157 -508 -293 -820 -406 l-126 -46 -1058 419 c-582 231 -1063
421 -1069 424 -25 10 44 3 535 -54z"/>
</g>
</svg>
