<svg version="1.0" xmlns="http://www.w3.org/2000/svg"
 width="233.000000pt" height="1167.000000pt" viewBox="0 0 233.000000 1167.000000"
 preserveAspectRatio="xMidYMid meet">
<g transform="translate(0.000000,1167.000000) scale(0.100000,-0.100000)"
fill="#9B83D4" stroke="none">
<path d="M1065 11627 c-93 -31 -184 -97 -264 -191 -77 -89 -75 -81 -47 -194
60 -236 119 -594 147 -892 19 -201 17 -736 -5 -935 -32 -302 -79 -581 -141
-830 l-25 -100 45 -40 c111 -101 224 -147 377 -153 89 -3 119 -1 175 17 76 23
169 75 233 130 l43 37 -36 149 c-91 375 -134 704 -144 1105 -11 472 38 956
153 1503 l25 118 -57 70 c-113 139 -234 210 -363 216 -45 2 -92 -3 -116 -10z"/>
<path d="M2297 9285 c-95 -570 -301 -1161 -599 -1718 l-71 -132 27 -170 c162
-1026 63 -2045 -290 -2998 -60 -160 -207 -503 -231 -536 -6 -8 -15 9 -83 157
-479 1049 -636 2307 -430 3452 l21 112 -47 81 c-74 128 -205 401 -261 542
-132 337 -216 651 -274 1027 -11 73 -23 135 -26 138 -13 12 13 -1345 37 -1960
95 -2378 366 -4406 841 -6304 110 -437 243 -922 258 -939 4 -4 40 133 79 305
586 2554 919 4949 1027 7383 31 718 45 1701 22 1560z"/>
</g>
</svg>
