<svg xmlns="http://www.w3.org/2000/svg" style="height: 100%; width: 100%;" viewBox="54.4 54.4 403.2 403.2"><defs><linearGradient x1="0" x2="0" y1="0" y2="1" id="delapouite-american-shield-gradient-2"><stop offset="0%" stop-color="#18a0c8" stop-opacity="1"></stop><stop offset="100%" stop-color="#18a0c8" stop-opacity="1"></stop></linearGradient></defs><g class="" transform="translate(0,0)" style=""><path d="M256 32A224 224 0 0 0 32 256a224 224 0 0 0 224 224 224 224 0 0 0 224-224A224 224 0 0 0 256 32zm0 40a184 184 0 0 1 184 184 184 184 0 0 1-184 184A184 184 0 0 1 72 256 184 184 0 0 1 256 72zm0 48a136 136 0 0 0-136 136 136 136 0 0 0 136 136 136 136 0 0 0 136-136 136 136 0 0 0-136-136zm-.994 47.834c9.848-.197 19.708 1.524 29.002 4.752 26.805 8.13 47.273 30.513 55.82 56.678l-63.05-1.285L256 168.202l-20.777 59.776-63.27 1.288L222.38 267.5l-18.02 59.563c-20.54-15.486-34.84-39.655-36.673-65.24-4.02-48.442 39.505-94.682 87.32-93.99zm84.87 61.564c3.95 12.16 5.334 25.13 3.57 37.866-2.29 24.324-16.34 45.71-35.82 59.754L289.618 267.5l50.255-38.102zM256 291.926l51.04 35.515c-15.884 11.27-35.293 17.685-54.886 16.857-17.256-.38-33.59-6.7-47.234-16.826L256 291.927z" fill="#ff9f00" fill-opacity="1" transform="translate(25.6, 25.6) scale(0.9, 0.9) rotate(0, 256, 256) skewX(0) skewY(0)"></path></g></svg>