<svg version="1.0" xmlns="http://www.w3.org/2000/svg"
 style="width:100%;height:100%" viewBox="0 0 343.000000 1158.000000"
 preserveAspectRatio="xMidYMid meet">
<g transform="translate(0.000000,1158.000000) scale(0.100000,-0.100000)"
fill="#007E6F" stroke="none">
<path d="M1538 11507 c-156 -66 -235 -196 -226 -371 7 -126 69 -230 176 -293
l42 -25 0 -664 0 -664 -572 -2 -572 -3 -113 -685 c-62 -377 -113 -692 -113
-701 0 -12 33 -20 163 -41 89 -14 163 -24 165 -23 1 1 31 179 67 396 36 217
67 404 70 417 5 22 5 22 225 22 121 0 220 -3 220 -6 0 -4 -241 -1279 -536
-2833 l-535 -2825 57 -166 c437 -1279 907 -2159 1573 -2944 l75 -89 29 34 c79
93 359 476 472 644 451 674 816 1426 1140 2354 l57 163 -531 2822 c-292 1552
-531 2827 -531 2834 0 9 52 12 218 12 l219 0 68 -412 c37 -227 71 -416 74
-420 3 -3 78 6 166 21 l160 27 -2 30 c-1 16 -53 332 -115 702 l-112 672 -573
0 -573 0 0 673 0 672 55 48 c198 174 154 498 -85 615 -45 22 -70 27 -150 30
-82 2 -103 -1 -152 -21z m457 -2659 c12 -52 1055 -5602 1052 -5603 -20 -14
-520 -275 -522 -273 -1 2 -190 1241 -419 2753 -229 1513 -420 2766 -425 2785
-8 33 -8 34 -14 10 -4 -14 -194 -1267 -423 -2785 -229 -1518 -417 -2762 -419
-2764 -2 -2 -107 46 -232 107 -176 85 -230 116 -236 134 -6 16 147 843 523
2828 292 1543 533 2811 535 2818 3 9 70 12 289 12 l286 0 5 -22z m-106 -5010
c120 -843 222 -1532 227 -1531 5 1 168 99 363 218 194 119 355 215 356 213 8
-8 -1181 -2085 -1189 -2078 -12 12 -1184 2074 -1181 2078 2 2 164 -96 361
-216 198 -121 362 -217 365 -213 3 3 108 695 233 1536 124 842 229 1541 233
1555 l7 25 4 -27 c2 -14 101 -716 221 -1560z"/>
</g>
</svg>
