<svg version="1.0" xmlns="http://www.w3.org/2000/svg"
 width="2560.000000pt" height="1280.000000pt" viewBox="0 0 2560.000000 1280.000000"
 preserveAspectRatio="xMidYMid meet">
<g transform="translate(0.000000,1280.000000) scale(0.100000,-0.100000)"
fill="#ac0000" stroke="none">
<path d="M19985 12790 c-813 -64 -1446 -239 -2155 -594 -432 -217 -819 -458
-1605 -996 -744 -510 -1123 -760 -1542 -1016 l-208 -127 -195 12 c-718 45
-1045 62 -1640 86 -1723 68 -4052 99 -7084 93 l-1710 -3 345 -104 c1473 -443
2783 -848 3894 -1203 903 -288 2205 -724 2205 -738 0 -8 -503 -163 -855 -264
-2495 -713 -5559 -1220 -9087 -1503 -192 -15 -348 -30 -348 -34 0 -3 46 -9
103 -13 153 -10 775 -63 1082 -92 3231 -301 5952 -773 8250 -1430 354 -101
855 -256 855 -264 0 -14 -1271 -440 -2190 -733 -1086 -348 -2394 -752 -3907
-1208 -189 -57 -343 -105 -343 -109 0 -3 1149 -2 2552 1 2251 6 3365 15 4233
34 1703 37 2516 70 3700 146 l190 12 145 -88 c374 -228 813 -517 1375 -905
519 -359 916 -626 1129 -760 1006 -632 1820 -911 2860 -981 227 -15 772 -6
926 15 496 69 929 202 1375 421 1610 791 2791 2496 3149 4545 77 441 107 773
113 1281 7 540 -14 895 -82 1349 -266 1778 -1137 3317 -2415 4267 -655 487
-1358 779 -2140 889 -134 19 -792 28 -975 14z m153 -2561 c513 -55 1053 -286
1485 -634 728 -586 1232 -1523 1376 -2555 33 -237 42 -371 42 -635 0 -405 -36
-717 -126 -1085 -366 -1496 -1455 -2585 -2745 -2745 -161 -20 -473 -20 -623 0
-549 72 -1052 302 -1530 699 l-28 23 188 62 c1315 432 2008 1112 2223 2181
107 530 106 1192 -1 1724 -216 1068 -904 1742 -2222 2177 l-188 63 28 23 c473
393 976 623 1521 698 119 16 468 19 600 4z"/>
</g>
</svg>
